<svg width="40" height="40" viewBox="0 0 40 40" fill="none" xmlns="http://www.w3.org/2000/svg">
<path d="M33.133 6.86701C33.0596 5.29244 32.4038 3.80129 31.293 2.68292C30.7009 2.08434 29.9964 1.60868 29.2199 1.28331C28.4434 0.957943 27.6102 0.789276 26.7683 0.78701C25.9264 0.784744 25.0923 0.948924 24.314 1.27011C23.5358 1.59129 22.8287 2.06315 22.2334 2.65854C21.6382 3.25394 21.1665 3.96112 20.8455 4.73944C20.5244 5.51777 20.3604 6.35187 20.3629 7.19379C20.3653 8.03571 20.5342 8.86884 20.8597 9.64528C21.1852 10.4217 21.661 11.1262 22.2597 11.7181L11.72 22.2598C11.1281 21.661 10.4236 21.1852 9.64719 20.8597C8.87075 20.5342 8.03761 20.3653 7.19569 20.3629C6.35377 20.3604 5.51967 20.5244 4.74135 20.8455C3.96303 21.1665 3.25584 21.6382 2.66045 22.2335C2.06506 22.8287 1.5932 23.5358 1.27202 24.3141C0.950831 25.0923 0.786652 25.9264 0.788918 26.7683C0.791184 27.6102 0.95985 28.4434 1.28522 29.2199C1.61059 29.9964 2.08624 30.701 2.68483 31.293C3.84633 32.4545 5.349 33.0525 6.86892 33.133C6.94942 34.6529 7.54742 36.1537 8.70892 37.3171C9.30097 37.9157 10.0055 38.3913 10.782 38.7167C11.5585 39.0421 12.3917 39.2107 13.2336 39.213C14.0755 39.2153 14.9096 39.0511 15.6879 38.7299C16.4661 38.4087 17.1732 37.9369 17.7685 37.3415C18.3637 36.7461 18.8354 36.0389 19.1565 35.2606C19.4775 34.4823 19.6415 33.6482 19.639 32.8062C19.6366 31.9643 19.4677 31.1312 19.1422 30.3547C18.8167 29.5783 18.3409 28.8739 17.7422 28.2819L28.2819 17.7422C28.8738 18.3409 29.5783 18.8167 30.3547 19.1422C31.1312 19.4678 31.9643 19.6366 32.8062 19.639C33.6481 19.6415 34.4822 19.4775 35.2606 19.1565C36.0389 18.8355 36.7461 18.3637 37.3415 17.7685C37.9369 17.1732 38.4087 16.4661 38.7299 15.6879C39.0511 14.9096 39.2153 14.0756 39.213 13.2336C39.2107 12.3917 39.0421 11.5585 38.7167 10.782C38.3913 10.0055 37.9157 9.30098 37.3171 8.70893C36.1994 7.59679 34.708 6.94023 33.133 6.86701V6.86701Z" fill="black"/>
</svg>
