<svg width="45" height="40" viewBox="0 0 45 40" fill="none" xmlns="http://www.w3.org/2000/svg">
<path d="M22.5002 0C10.0753 0 0 9.16912 0 20.4802C0 29.5288 6.44695 37.2058 15.387 39.9138C16.5115 40.1034 16.9244 39.4694 16.9244 38.9285C16.9244 38.4402 16.9033 36.8269 16.8938 35.1157C10.6342 36.3544 9.31342 32.6992 9.31342 32.6992C8.28984 30.332 6.81504 29.7024 6.81504 29.7024C4.77369 28.4314 6.96902 28.4576 6.96902 28.4576C9.22834 28.6019 10.418 30.568 10.418 30.568C12.4249 33.6989 15.6818 32.7938 16.9657 32.2704C17.1677 30.9469 17.7507 30.0432 18.3943 29.5318C13.3966 29.0141 8.14307 27.2579 8.14307 19.4106C8.14307 17.1746 9.02197 15.3475 10.4613 13.9133C10.2277 13.3974 9.45756 11.3146 10.6792 8.49344C10.6792 8.49344 12.5687 7.94304 16.8685 10.5928C18.6632 10.139 20.588 9.91152 22.5002 9.90368C24.4123 9.91152 26.3387 10.1389 28.1368 10.5928C32.4313 7.9432 34.3181 8.4936 34.3181 8.4936C35.5428 11.3144 34.7723 13.3976 34.5387 13.9133C35.9814 15.3475 36.8543 17.1746 36.8543 19.4106C36.8543 27.2766 31.5907 29.0086 26.5804 29.5157C27.3874 30.1512 28.1065 31.3976 28.1065 33.3083C28.1065 36.0485 28.0805 38.2539 28.0805 38.9285C28.0805 39.4736 28.4855 40.1122 29.626 39.9109C38.5611 37.2 45 29.5259 45 20.4803C45 9.16912 34.9262 0 22.5002 0ZM8.42713 29.1744C8.37756 29.2762 8.2016 29.3067 8.04146 29.2368C7.87816 29.1701 7.78658 29.0314 7.83932 28.9293C7.88783 28.8245 8.06414 28.7952 8.22691 28.8654C8.39039 28.9323 8.48355 29.0723 8.42713 29.1744ZM9.53385 30.0733C9.42662 30.1638 9.21674 30.1218 9.07436 29.9787C8.92723 29.836 8.89963 29.645 9.00844 29.5531C9.11918 29.4626 9.32256 29.505 9.47004 29.6477C9.61734 29.7922 9.64582 29.9818 9.53385 30.0733ZM10.2932 31.2234C10.1552 31.3106 9.92988 31.2288 9.79049 31.0467C9.65268 30.8646 9.65268 30.6462 9.79348 30.5587C9.93322 30.4712 10.1552 30.5499 10.2964 30.7307C10.4338 30.9158 10.4338 31.1342 10.293 31.2235L10.2932 31.2234ZM11.5771 32.5554C11.4539 32.6792 11.1911 32.6459 10.9988 32.477C10.8021 32.3118 10.7474 32.0776 10.8712 31.9538C10.996 31.8296 11.2602 31.8645 11.4539 32.0322C11.649 32.197 11.7088 32.433 11.5771 32.5554ZM13.2369 33.005C13.1824 33.1654 12.9292 33.2384 12.6745 33.1702C12.42 33.1 12.2535 32.9122 12.3049 32.7501C12.3578 32.5885 12.612 32.5126 12.8686 32.5856C13.1228 32.6554 13.2898 32.8419 13.2369 33.0051V33.005ZM15.1254 33.1958C15.1318 33.3646 14.9157 33.5046 14.6482 33.5078C14.3793 33.5133 14.1615 33.3766 14.1585 33.2102C14.1585 33.0398 14.3698 32.9011 14.6389 32.897C14.9064 32.8922 15.1254 33.0278 15.1254 33.1958ZM16.9808 33.131C17.0128 33.2958 16.827 33.4651 16.5612 33.5102C16.3002 33.5536 16.0583 33.4518 16.0251 33.2885C15.9928 33.1195 16.1821 32.9502 16.4428 32.9066C16.7089 32.8645 16.9469 32.9635 16.9808 33.131Z" fill="#161614"/>
</svg>
