<svg width="31" height="30" viewBox="0 0 31 30" fill="none" xmlns="http://www.w3.org/2000/svg">
<path d="M30.3447 14.3888L16.2661 0.320407C16.1647 0.218838 16.0443 0.138259 15.9118 0.0832791C15.7792 0.0282996 15.6371 0 15.4936 0C15.3501 0 15.2081 0.0282996 15.0755 0.0832791C14.943 0.138259 14.8226 0.218838 14.7212 0.320407L0.642578 14.3888C0.232422 14.7989 0 15.3561 0 15.9371C0 17.1436 0.980956 18.1246 2.1875 18.1246H3.6709V28.1632C3.6709 28.7682 4.15967 29.2569 4.76465 29.2569H13.3061V21.6007H17.1343V29.2569H26.2226C26.8276 29.2569 27.3164 28.7682 27.3164 28.1632V18.1246H28.7998C29.3808 18.1246 29.938 17.8956 30.3481 17.482C31.1992 16.6275 31.1992 15.2433 30.3447 14.3888V14.3888Z" fill="black"/>
</svg>
