<svg width="45" height="40" viewBox="0 0 45 40" fill="none" xmlns="http://www.w3.org/2000/svg">
<path d="M38.3421 33.6564H31.6746V24.4907C31.6746 22.3051 31.6301 19.4915 28.2067 19.4915C24.734 19.4915 24.2026 21.8729 24.2026 24.3316V33.6558H17.5352V14.8075H23.936V17.3833H24.0256C24.6662 16.4219 25.5918 15.631 26.704 15.0948C27.8161 14.5587 29.0731 14.2973 30.3411 14.3386C37.099 14.3386 38.3449 18.2404 38.3449 23.3165L38.3421 33.6564ZM10.0118 12.2312C7.87482 12.2315 6.14215 10.7111 6.1418 8.83529C6.14145 6.9595 7.87342 5.4386 10.0104 5.43829C12.1474 5.43783 13.88 6.95827 13.8804 8.83405C13.8806 9.73484 13.4731 10.5988 12.7476 11.2359C12.0221 11.873 11.038 12.231 10.0118 12.2312ZM13.3457 33.6566H6.67107V14.8075H13.3455V33.6564L13.3457 33.6566ZM41.6661 0.00287484H3.32068C1.50838 -0.0150236 0.0221484 1.25931 0 2.85011V36.6493C0.0214453 38.2409 1.5075 39.5164 3.32051 39.4998H41.6661C43.483 39.5195 44.9749 38.2439 45 36.6493V2.84749C44.9742 1.2536 43.4821 -0.0205783 41.6661 0.000251796" fill="#0A66C2"/>
</svg>
