<svg width="31" height="30" viewBox="0 0 31 30" fill="none" xmlns="http://www.w3.org/2000/svg">
<path d="M27.891 24.0987C27.891 24.5904 27.7278 25.0619 27.4372 25.4096C27.1466 25.7572 26.7525 25.9525 26.3415 25.9525C25.9305 25.9525 25.5364 25.7572 25.2458 25.4096C24.9552 25.0619 24.792 24.5904 24.792 24.0987V1.85375C24.792 1.3621 24.6288 0.890597 24.3382 0.542951C24.0476 0.195306 23.6535 0 23.2425 0H1.5495C1.13855 0 0.744426 0.195306 0.453838 0.542951C0.16325 0.890597 0 1.3621 0 1.85375V25.9525C0 26.9358 0.326501 27.8788 0.907676 28.5741C1.48885 29.2694 2.27709 29.66 3.099 29.66H26.3415C28.9044 29.66 30.99 27.1649 30.99 24.0987V5.56125H27.891V24.0987ZM15.495 5.56125H20.1435V9.26875H15.495V5.56125ZM15.495 12.9762H20.1435V16.6837H15.495V12.9762ZM4.6485 5.56125H12.396V16.6837H4.6485V5.56125ZM4.6485 24.0987V20.3912H20.1435V24.0987H4.6485Z" fill="black"/>
</svg>
