<svg width="52" height="51" viewBox="0 0 52 51" fill="none" xmlns="http://www.w3.org/2000/svg">
<path d="M24.4766 7.57031H27.5234C27.7943 7.57031 27.9297 7.70312 27.9297 7.96875V43.0312C27.9297 43.2969 27.7943 43.4297 27.5234 43.4297H24.4766C24.2057 43.4297 24.0703 43.2969 24.0703 43.0312V7.96875C24.0703 7.70312 24.2057 7.57031 24.4766 7.57031Z" fill="black"/>
<path d="M8.9375 23.6074H43.0625C43.3333 23.6074 43.4688 23.7402 43.4688 24.0059V26.9941C43.4688 27.2598 43.3333 27.3926 43.0625 27.3926H8.9375C8.66667 27.3926 8.53125 27.2598 8.53125 26.9941V24.0059C8.53125 23.7402 8.66667 23.6074 8.9375 23.6074Z" fill="black"/>
</svg>
